<?xml version="1.0" encoding="UTF-8"?>
<svg version="1.1" xmlns="http://www.w3.org/2000/svg" width="300" height="300">
<path d="M0 0 C9.95640814 -0.31998345 15.61247257 2.50134166 23.375 8.52734375 C23.94347656 9.06230469 24.51195313 9.59726563 25.09765625 10.1484375 C25.09765625 10.8084375 25.09765625 11.4684375 25.09765625 12.1484375 C25.65710938 12.38691406 26.2165625 12.62539062 26.79296875 12.87109375 C29.61352762 14.43435265 31.6336626 16.36424901 33.97265625 18.5859375 C38.9486509 23.19930906 44.12921584 27.4260272 49.50146484 31.56811523 C51.81072305 33.34891738 54.03293525 35.0837165 56.09765625 37.1484375 C55.91792501 39.93427171 55.30192378 40.95121368 53.28515625 42.8984375 C51.09765625 44.1484375 51.09765625 44.1484375 47.09765625 44.1484375 C47.09765625 43.4884375 47.09765625 42.8284375 47.09765625 42.1484375 C46.52015625 41.8803125 45.94265625 41.6121875 45.34765625 41.3359375 C43.04215582 40.11914561 41.07709433 38.84509871 39.09765625 37.1484375 C39.09765625 36.4884375 39.09765625 35.8284375 39.09765625 35.1484375 C38.49953125 34.8596875 37.90140625 34.5709375 37.28515625 34.2734375 C35.09765625 33.1484375 35.09765625 33.1484375 32.09765625 31.1484375 C32.09765625 30.4884375 32.09765625 29.8284375 32.09765625 29.1484375 C31.535625 28.890625 30.97359375 28.6328125 30.39453125 28.3671875 C27.83061046 27.00673973 25.6453926 25.42054788 23.34765625 23.6484375 C22.5484375 23.04 21.74921875 22.4315625 20.92578125 21.8046875 C20.3225 21.258125 19.71921875 20.7115625 19.09765625 20.1484375 C19.09765625 19.4884375 19.09765625 18.8284375 19.09765625 18.1484375 C18.35515625 17.9009375 17.61265625 17.6534375 16.84765625 17.3984375 C14.09765625 16.1484375 14.09765625 16.1484375 12.28515625 14.0859375 C8.6722698 10.88595236 4.62274798 11.15321987 0.03515625 11.14453125 C-8.50152554 11.66238143 -17.15482496 14.96270396 -23.90234375 20.1484375 C-24.56234375 20.1484375 -25.22234375 20.1484375 -25.90234375 20.1484375 C-25.90234375 20.8084375 -25.90234375 21.4684375 -25.90234375 22.1484375 C-27.06531848 23.27720709 -28.22935997 24.4048961 -29.3984375 25.52734375 C-37.91781339 34.71056711 -41.22317766 45.87862931 -40.79296875 58.30859375 C-39.88912082 65.16879952 -37.45945617 70.7070029 -34.14453125 76.75 C-32.90234375 79.1484375 -32.90234375 79.1484375 -32.90234375 81.1484375 C-32.24234375 81.1484375 -31.58234375 81.1484375 -30.90234375 81.1484375 C-30.90234375 81.8084375 -30.90234375 82.4684375 -30.90234375 83.1484375 C-30.24234375 83.1484375 -29.58234375 83.1484375 -28.90234375 83.1484375 C-27.74934822 84.33534466 -26.59714156 85.52302978 -25.44921875 86.71484375 C-18.57594863 93.08476833 -9.12295464 96.96330531 0.03515625 98.3828125 C5.99847947 97.92643572 9.2622376 93.34156359 13.09765625 89.1484375 C19.6046985 83.1484375 19.6046985 83.1484375 22.09765625 83.1484375 C23.08765625 81.1684375 23.08765625 81.1684375 24.09765625 79.1484375 C24.75765625 79.1484375 25.41765625 79.1484375 26.09765625 79.1484375 C26.34515625 78.5296875 26.59265625 77.9109375 26.84765625 77.2734375 C28.30394264 74.79775063 29.47578131 74.19718748 32.09765625 73.1484375 C32.09765625 72.4884375 32.09765625 71.8284375 32.09765625 71.1484375 C33.53125 69.703125 33.53125 69.703125 35.53515625 68.0234375 C36.2621875 67.40339844 36.98921875 66.78335938 37.73828125 66.14453125 C38.516875 65.48582031 39.29546875 64.82710938 40.09765625 64.1484375 C45.23144633 59.73711788 49.7685354 55.36558313 54.09765625 50.1484375 C56.04624248 48.36188722 58.04643698 46.6480719 60.05859375 44.93359375 C61.99248657 43.24051134 63.79934121 41.48370422 65.59765625 39.6484375 C69.25399389 35.93393085 73.14566992 32.54249634 77.09765625 29.1484375 C77.75507813 28.56320313 78.4125 27.97796875 79.08984375 27.375 C79.71117187 26.82585937 80.3325 26.27671875 80.97265625 25.7109375 C81.80410156 24.97037109 81.80410156 24.97037109 82.65234375 24.21484375 C84.09765625 23.1484375 84.09765625 23.1484375 86.09765625 23.1484375 C86.34515625 22.5296875 86.59265625 21.9109375 86.84765625 21.2734375 C88.30394264 18.79775063 89.47578131 18.19718748 92.09765625 17.1484375 C92.09765625 16.4884375 92.09765625 15.8284375 92.09765625 15.1484375 C93.58621691 13.81579327 95.1406927 12.55624271 96.72265625 11.3359375 C99.67103603 9.04782868 102.56809133 6.76315474 105.34765625 4.2734375 C112.61546957 -1.34260006 121.96720474 -0.59017112 130.69140625 0.4609375 C137.63340473 1.82978227 143.82206521 4.9894883 150.09765625 8.1484375 C150.09765625 8.8084375 150.09765625 9.4684375 150.09765625 10.1484375 C151.74765625 10.4784375 153.39765625 10.8084375 155.09765625 11.1484375 C155.09765625 11.8084375 155.09765625 12.4684375 155.09765625 13.1484375 C156.08765625 13.4784375 157.07765625 13.8084375 158.09765625 14.1484375 C163.09765625 19.61355378 163.09765625 19.61355378 163.09765625 22.1484375 C163.75765625 22.1484375 164.41765625 22.1484375 165.09765625 22.1484375 C170.09547843 31.30723722 174.44537419 39.54176403 175.09765625 50.1484375 C175.21753906 51.71851563 175.21753906 51.71851563 175.33984375 53.3203125 C176.01481704 69.91671451 168.86527577 82.35770164 158.05078125 94.3125 C156.09765625 96.1484375 156.09765625 96.1484375 154.09765625 96.1484375 C154.09765625 96.8084375 154.09765625 97.4684375 154.09765625 98.1484375 C151.09765625 100.1484375 151.09765625 100.1484375 148.09765625 100.1484375 C148.09765625 100.8084375 148.09765625 101.4684375 148.09765625 102.1484375 C139.58865579 106.20597013 132.36656455 108.31455031 122.91015625 108.5234375 C122.22042725 108.54954102 121.53069824 108.57564453 120.82006836 108.60253906 C117.17418393 108.61490548 115.21264035 108.22148622 112.109375 106.25 C110.09765625 104.1484375 110.09765625 104.1484375 110.09765625 102.1484375 C109.515 101.8803125 108.93234375 101.6121875 108.33203125 101.3359375 C106.06979024 100.13362759 104.29189307 98.81017837 102.34765625 97.1484375 C101.7340625 96.6328125 101.12046875 96.1171875 100.48828125 95.5859375 C99.09765625 94.1484375 99.09765625 94.1484375 99.09765625 92.1484375 C98.43765625 92.1484375 97.77765625 92.1484375 97.09765625 92.1484375 C97.09765625 91.4884375 97.09765625 90.8284375 97.09765625 90.1484375 C96.43765625 90.1484375 95.77765625 90.1484375 95.09765625 90.1484375 C95.09765625 89.4884375 95.09765625 88.8284375 95.09765625 88.1484375 C94.43765625 88.1484375 93.77765625 88.1484375 93.09765625 88.1484375 C93.09765625 87.4884375 93.09765625 86.8284375 93.09765625 86.1484375 C92.10765625 85.8184375 91.11765625 85.4884375 90.09765625 85.1484375 C90.09765625 84.4884375 90.09765625 83.8284375 90.09765625 83.1484375 C89.54078125 82.9009375 88.98390625 82.6534375 88.41015625 82.3984375 C85.67354712 80.91918932 83.42114756 79.21376311 81.09765625 77.1484375 C81.09765625 76.4884375 81.09765625 75.8284375 81.09765625 75.1484375 C80.515 74.8803125 79.93234375 74.6121875 79.33203125 74.3359375 C77.06979024 73.13362759 75.29189307 71.81017837 73.34765625 70.1484375 C72.7340625 69.6328125 72.12046875 69.1171875 71.48828125 68.5859375 C70.09765625 67.1484375 70.09765625 67.1484375 70.09765625 65.1484375 C69.43765625 65.1484375 68.77765625 65.1484375 68.09765625 65.1484375 C68.09765625 64.4884375 68.09765625 63.8284375 68.09765625 63.1484375 C67.43765625 63.1484375 66.77765625 63.1484375 66.09765625 63.1484375 C66.4301228 60.07312194 66.72870381 58.53011244 68.91015625 56.2734375 C71.09765625 55.1484375 71.09765625 55.1484375 73.16015625 55.3359375 C75.09765625 56.1484375 75.09765625 56.1484375 78.09765625 58.1484375 C78.09765625 58.8084375 78.09765625 59.4684375 78.09765625 60.1484375 C78.66613281 60.38949219 79.23460937 60.63054687 79.8203125 60.87890625 C82.54554533 62.39811838 84.36455964 64.22262731 86.53515625 66.4609375 C87.32792969 67.27046875 88.12070313 68.08 88.9375 68.9140625 C89.65035156 69.65140625 90.36320313 70.38875 91.09765625 71.1484375 C94.98287347 75.13078515 99.07439982 78.76970485 103.3046875 82.37890625 C103.89636719 82.96285156 104.48804688 83.54679687 105.09765625 84.1484375 C105.09765625 84.8084375 105.09765625 85.4684375 105.09765625 86.1484375 C105.68675781 86.40753906 106.27585938 86.66664063 106.8828125 86.93359375 C109.2512279 88.23267169 110.70081582 89.6160338 112.53515625 91.5859375 C117.14573715 96.51760812 117.14573715 96.51760812 123.46484375 98.2734375 C131.45883963 97.91110341 138.88694299 95.34587751 145.2890625 90.484375 C147.09765625 89.1484375 147.09765625 89.1484375 149.09765625 89.1484375 C149.09765625 88.4884375 149.09765625 87.8284375 149.09765625 87.1484375 C149.75765625 87.1484375 150.41765625 87.1484375 151.09765625 87.1484375 C151.09765625 86.4884375 151.09765625 85.8284375 151.09765625 85.1484375 C151.75765625 85.1484375 152.41765625 85.1484375 153.09765625 85.1484375 C153.09765625 84.4884375 153.09765625 83.8284375 153.09765625 83.1484375 C153.75765625 83.1484375 154.41765625 83.1484375 155.09765625 83.1484375 C155.36578125 82.60316406 155.63390625 82.05789062 155.91015625 81.49609375 C156.75668394 79.82253078 157.63536642 78.1650708 158.53515625 76.51953125 C164.98716815 64.4058789 166.16044387 54.63648298 163.09765625 41.1484375 C160.4080457 33.03477902 155.11727629 27.06568305 149.09765625 21.1484375 C148.5046875 20.54773438 147.91171875 19.94703125 147.30078125 19.328125 C140.29126413 13.15602806 129.05946825 11.01905661 119.91015625 10.7734375 C112.68740807 11.48387175 109.19218584 14.58057296 104.16015625 19.4609375 C91.94321118 31.1484375 91.94321118 31.1484375 89.09765625 31.1484375 C89.09765625 31.8084375 89.09765625 32.4684375 89.09765625 33.1484375 C88.43765625 33.1484375 87.77765625 33.1484375 87.09765625 33.1484375 C86.89140625 33.7053125 86.68515625 34.2621875 86.47265625 34.8359375 C84.92734494 37.43487015 83.03167976 38.9938045 80.6796875 40.859375 C77.49852813 43.45143079 74.72588465 46.48431033 71.91015625 49.4609375 C70.09765625 51.1484375 70.09765625 51.1484375 68.09765625 51.1484375 C67.89914063 51.68210938 67.700625 52.21578125 67.49609375 52.765625 C65.47004056 56.21783854 62.6727974 58.60271501 59.72265625 61.2734375 C59.14515625 61.81097656 58.56765625 62.34851563 57.97265625 62.90234375 C55.17910317 65.45991176 52.66571786 67.72472819 49.09765625 69.1484375 C49.09765625 69.8084375 49.09765625 70.4684375 49.09765625 71.1484375 C47.5234375 72.69921875 47.5234375 72.69921875 45.41015625 74.4609375 C42.89963331 76.58488434 40.48942204 78.70345094 38.22265625 81.0859375 C36.09765625 83.1484375 36.09765625 83.1484375 34.09765625 83.1484375 C33.60265625 84.6334375 33.60265625 84.6334375 33.09765625 86.1484375 C32.43765625 86.1484375 31.77765625 86.1484375 31.09765625 86.1484375 C30.60265625 87.6334375 30.60265625 87.6334375 30.09765625 89.1484375 C28.42157122 90.6474914 26.68203793 92.07643076 24.91015625 93.4609375 C21.61141269 96.08279602 18.44968553 98.66590691 15.53515625 101.7109375 C14.73078125 102.5153125 13.92640625 103.3196875 13.09765625 104.1484375 C12.43765625 104.1484375 11.77765625 104.1484375 11.09765625 104.1484375 C11.09765625 104.8084375 11.09765625 105.4684375 11.09765625 106.1484375 C5.88250689 109.62520374 -0.52211724 109.59624529 -6.64453125 108.78515625 C-12.24174166 107.43152821 -17.36460373 105.14903709 -22.52734375 102.6484375 C-23.14399902 102.35195312 -23.7606543 102.05546875 -24.39599609 101.75 C-28.77953928 99.51685092 -28.77953928 99.51685092 -29.90234375 96.1484375 C-30.47984375 95.8596875 -31.05734375 95.5709375 -31.65234375 95.2734375 C-40.3047946 90.94721207 -45.53295079 80.70400988 -48.9375 72.1328125 C-50.24265242 68.09582284 -50.62537411 64.37222455 -50.90234375 60.1484375 C-51.23234375 59.8184375 -51.56234375 59.4884375 -51.90234375 59.1484375 C-52.58063766 44.90426531 -48.35040426 30.12037874 -38.90234375 19.1484375 C-38.24234375 19.1484375 -37.58234375 19.1484375 -36.90234375 19.1484375 C-36.66 18.56835938 -36.41765625 17.98828125 -36.16796875 17.390625 C-31.20308096 8.59480527 -19.95247199 4.27029664 -10.90234375 1.1484375 C-7.26951697 0.19608187 -3.74255073 0.19140905 0 0 Z " fill="#484848" transform="translate(87.90234375,94.8515625)"/>
<path d="M0 0 C-1.25541557 2.51083114 -2.50063488 2.87125446 -5 4 C-4.01 6.97 -4.01 6.97 -3 10 C-5.73282675 8.92343188 -8.37004879 7.81497561 -11 6.5 C-19.09440682 3.04356484 -29.43599047 1.68791151 -38 4 C-41.0011068 5.87495338 -43.32169089 8.19225011 -45.75 10.75 C-46.99349838 11.99608361 -48.23827234 13.24089571 -49.484375 14.484375 C-50.36706055 15.37866211 -50.36706055 15.37866211 -51.26757812 16.29101562 C-58.06857143 23 -58.06857143 23 -61 23 C-61 23.66 -61 24.32 -61 25 C-61.66 25 -62.32 25 -63 25 C-63.309375 25.8353125 -63.309375 25.8353125 -63.625 26.6875 C-65.17031131 29.28643265 -67.06597649 30.845367 -69.41796875 32.7109375 C-72.59912812 35.30299329 -75.3717716 38.33587283 -78.1875 41.3125 C-80 43 -80 43 -82 43 C-82.19851562 43.53367188 -82.39703125 44.06734375 -82.6015625 44.6171875 C-84.62761569 48.06940104 -87.42485885 50.45427751 -90.375 53.125 C-90.9525 53.66253906 -91.53 54.20007813 -92.125 54.75390625 C-94.91855308 57.31147426 -97.43193839 59.57629069 -101 61 C-101 61.66 -101 62.32 -101 63 C-102.57421875 64.55078125 -102.57421875 64.55078125 -104.6875 66.3125 C-107.19802294 68.43644684 -109.60823421 70.55501344 -111.875 72.9375 C-114 75 -114 75 -116 75 C-116.33 75.99 -116.66 76.98 -117 78 C-117.66 78 -118.32 78 -119 78 C-119.33 78.99 -119.66 79.98 -120 81 C-121.67608503 82.4990539 -123.41561832 83.92799326 -125.1875 85.3125 C-129.40943278 88.67685269 -133.28752499 92.08685066 -137 96 C-137.66 95.67 -138.32 95.34 -139 95 C-138.01 93.68 -137.02 92.36 -136 91 C-138.97 91.495 -138.97 91.495 -142 92 C-142 91.01 -142 90.02 -142 89 C-142.66 88.67 -143.32 88.34 -144 88 C-140.87608257 84.77531104 -137.63668034 81.70607022 -134.3125 78.6875 C-133.54550781 77.99011719 -132.77851563 77.29273438 -131.98828125 76.57421875 C-130 75 -130 75 -128 75 C-127.34 73.68 -126.68 72.36 -126 71 C-125.34 71 -124.68 71 -124 71 C-123.7525 70.38125 -123.505 69.7625 -123.25 69.125 C-121.79371361 66.64931313 -120.62187494 66.04874998 -118 65 C-118 64.34 -118 63.68 -118 63 C-116.56640625 61.5546875 -116.56640625 61.5546875 -114.5625 59.875 C-113.47195312 58.94494141 -113.47195312 58.94494141 -112.359375 57.99609375 C-111.58078125 57.33738281 -110.8021875 56.67867188 -110 56 C-104.86620992 51.58868038 -100.32912085 47.21714563 -96 42 C-94.05141377 40.21344972 -92.05121927 38.4996344 -90.0390625 36.78515625 C-88.10516968 35.09207384 -86.29831504 33.33526672 -84.5 31.5 C-80.84366236 27.78549335 -76.95198633 24.39405884 -73 21 C-72.01386719 20.12214844 -72.01386719 20.12214844 -71.0078125 19.2265625 C-70.38648438 18.67742187 -69.76515625 18.12828125 -69.125 17.5625 C-68.57070312 17.06878906 -68.01640625 16.57507813 -67.4453125 16.06640625 C-66 15 -66 15 -64 15 C-63.7525 14.38125 -63.505 13.7625 -63.25 13.125 C-61.79371361 10.64931313 -60.62187494 10.04874998 -58 9 C-58 8.34 -58 7.68 -58 7 C-56.51143934 5.66735577 -54.95696355 4.40780521 -53.375 3.1875 C-50.42662022 0.89939118 -47.52956492 -1.38528276 -44.75 -3.875 C-31.62909818 -14.01387868 -12.97952208 -6.53351224 0 0 Z " fill="#3D3D3D" transform="translate(238,103)"/>
<path d="M0 0 C9.95640814 -0.31998345 15.61247257 2.50134166 23.375 8.52734375 C23.94347656 9.06230469 24.51195313 9.59726563 25.09765625 10.1484375 C25.09765625 10.8084375 25.09765625 11.4684375 25.09765625 12.1484375 C25.65710938 12.38691406 26.2165625 12.62539062 26.79296875 12.87109375 C29.61352762 14.43435265 31.6336626 16.36424901 33.97265625 18.5859375 C38.9486509 23.19930906 44.12921584 27.4260272 49.50146484 31.56811523 C51.81072305 33.34891738 54.03293525 35.0837165 56.09765625 37.1484375 C55.91792501 39.93427171 55.30192378 40.95121368 53.28515625 42.8984375 C51.09765625 44.1484375 51.09765625 44.1484375 47.09765625 44.1484375 C47.09765625 43.4884375 47.09765625 42.8284375 47.09765625 42.1484375 C46.52015625 41.8803125 45.94265625 41.6121875 45.34765625 41.3359375 C43.04215582 40.11914561 41.07709433 38.84509871 39.09765625 37.1484375 C39.09765625 36.4884375 39.09765625 35.8284375 39.09765625 35.1484375 C38.49953125 34.8596875 37.90140625 34.5709375 37.28515625 34.2734375 C35.09765625 33.1484375 35.09765625 33.1484375 32.09765625 31.1484375 C32.09765625 30.4884375 32.09765625 29.8284375 32.09765625 29.1484375 C31.535625 28.890625 30.97359375 28.6328125 30.39453125 28.3671875 C27.83061046 27.00673973 25.6453926 25.42054788 23.34765625 23.6484375 C22.5484375 23.04 21.74921875 22.4315625 20.92578125 21.8046875 C20.3225 21.258125 19.71921875 20.7115625 19.09765625 20.1484375 C19.09765625 19.4884375 19.09765625 18.8284375 19.09765625 18.1484375 C18.35515625 17.9009375 17.61265625 17.6534375 16.84765625 17.3984375 C14.09765625 16.1484375 14.09765625 16.1484375 12.28515625 14.0859375 C8.6722698 10.88595236 4.62274798 11.15321987 0.03515625 11.14453125 C-8.50152554 11.66238143 -17.15482496 14.96270396 -23.90234375 20.1484375 C-24.56234375 20.1484375 -25.22234375 20.1484375 -25.90234375 20.1484375 C-25.90234375 20.8084375 -25.90234375 21.4684375 -25.90234375 22.1484375 C-27.06072996 23.27275353 -28.22101608 24.39517593 -29.390625 25.5078125 C-32.34384889 28.71286169 -34.57483735 32.47721607 -36.90234375 36.1484375 C-39.18805804 27.00558036 -39.18805804 27.00558036 -37.90234375 23.1484375 C-39.88234375 24.1384375 -39.88234375 24.1384375 -41.90234375 25.1484375 C-40.90234375 23.1484375 -39.90234375 21.1484375 -38.90234375 19.1484375 C-38.24234375 19.1484375 -37.58234375 19.1484375 -36.90234375 19.1484375 C-36.66 18.56835938 -36.41765625 17.98828125 -36.16796875 17.390625 C-31.20308096 8.59480527 -19.95247199 4.27029664 -10.90234375 1.1484375 C-7.26951697 0.19608187 -3.74255073 0.19140905 0 0 Z " fill="#4D4D4D" transform="translate(87.90234375,94.8515625)"/>
<path d="M0 0 C1.48011371 0.30798326 2.95907325 0.621518 4.4375 0.9375 C5.26121094 1.11152344 6.08492188 1.28554687 6.93359375 1.46484375 C9 2 9 2 10 3 C10.10991217 5.03925045 10.14912471 7.08233668 10.16113281 9.12451172 C10.17074036 10.43612274 10.1803479 11.74773376 10.19024658 13.09909058 C10.19509414 14.54262113 10.19937308 15.98615368 10.203125 17.4296875 C10.20887411 18.90080773 10.21463187 20.37192793 10.22039795 21.8430481 C10.23091751 24.93166454 10.23675379 28.02025487 10.24023438 31.10888672 C10.24571875 35.06921632 10.26974116 39.02920202 10.29820633 42.98942375 C10.31681912 46.02972423 10.32203759 49.0699417 10.32357025 52.11029434 C10.32660081 53.5703634 10.33464295 55.03043086 10.34775543 56.49044418 C10.36478438 58.53246025 10.36109545 60.57461745 10.35644531 62.61669922 C10.36009094 63.77950409 10.36373657 64.94230896 10.36749268 66.14035034 C10 69 10 69 8.59881592 70.8208313 C6.75047063 72.18403446 5.1668517 73.21205393 3 74 C0.87109375 73.546875 0.87109375 73.546875 -1 73 C-0.92935333 72.27179047 -0.85870667 71.54358093 -0.78591919 70.79330444 C-0.12598058 63.54384586 0.14735479 56.37856942 0.1328125 49.1015625 C0.13376923 48.02296967 0.13472595 46.94437683 0.13571167 45.83309937 C0.1363865 43.57606955 0.13458136 41.31903771 0.13037109 39.06201172 C0.12498111 35.61291168 0.13035601 32.16393998 0.13671875 28.71484375 C0.13605846 26.51041638 0.13477832 24.30598909 0.1328125 22.1015625 C0.13483673 21.0764859 0.13686096 20.0514093 0.13894653 18.99526978 C0.12321861 14.19604117 -0.11608132 9.73189274 -1 5 C-0.5625 2.125 -0.5625 2.125 0 0 Z " fill="#585858" transform="translate(91,110)"/>
<path d="M0 0 C0.99 0.66 1.98 1.32 3 2 C3.36076355 4.9359436 3.36076355 4.9359436 3.34057617 8.74462891 C3.34101425 9.43742447 3.34145233 10.13022003 3.34190369 10.8440094 C3.33981032 13.13847851 3.31645468 15.43222074 3.29296875 17.7265625 C3.28737471 19.31553752 3.28310371 20.90451771 3.28010559 22.49349976 C3.26864158 26.67922203 3.23916131 30.86463286 3.20599365 35.05023193 C3.17532611 39.31990343 3.16160737 43.58962516 3.14648438 47.859375 C3.11429284 56.23972639 3.06307803 64.61982447 3 73 C0 74 0 74 -1.7890625 73.1796875 C-2.39492187 72.74914062 -3.00078125 72.31859375 -3.625 71.875 C-4.23601562 71.45992188 -4.84703125 71.04484375 -5.4765625 70.6171875 C-8.82437783 67.06335276 -8.12857563 61.63012755 -8.1328125 57.0234375 C-8.13413177 56.34812988 -8.13545105 55.67282227 -8.1368103 54.97705078 C-8.13872502 52.77632046 -8.13238756 50.57571741 -8.125 48.375 C-8.12411377 47.62599426 -8.12322754 46.87698853 -8.12231445 46.10528564 C-8.10238042 31.72019499 -7.68030502 17.3696342 -7 3 C-3.6875 1.375 -3.6875 1.375 0 0 Z " fill="#424242" transform="translate(206,111)"/>
<path d="M0 0 C1.9375 0.8125 1.9375 0.8125 4.9375 2.8125 C4.9375 3.4725 4.9375 4.1325 4.9375 4.8125 C5.50597656 5.05355469 6.07445312 5.29460937 6.66015625 5.54296875 C9.38538908 7.06218088 11.20440339 8.88668981 13.375 11.125 C14.16777344 11.93453125 14.96054688 12.7440625 15.77734375 13.578125 C16.49019531 14.31546875 17.20304687 15.0528125 17.9375 15.8125 C21.82271722 19.79484765 25.91424357 23.43376735 30.14453125 27.04296875 C30.73621094 27.62691406 31.32789063 28.21085937 31.9375 28.8125 C31.9375 29.4725 31.9375 30.1325 31.9375 30.8125 C32.52660156 31.07160156 33.11570313 31.33070313 33.72265625 31.59765625 C36.09107165 32.89673419 37.54065957 34.2800963 39.375 36.25 C44.15794854 41.2525692 44.15794854 41.2525692 50.69140625 42.984375 C53.44790086 42.99845671 56.18437584 42.94268275 58.9375 42.8125 C58.9375 43.1425 58.9375 43.4725 58.9375 43.8125 C53.41364346 45.19346413 48.11292085 45.90021042 42.9375 43.3125 C42.2775 42.8175 41.6175 42.3225 40.9375 41.8125 C40.9375 42.4725 40.9375 43.1325 40.9375 43.8125 C39.9475 44.3075 39.9475 44.3075 38.9375 44.8125 C38.9375 46.1325 38.9375 47.4525 38.9375 48.8125 C38.2775 48.8125 37.6175 48.8125 36.9375 48.8125 C36.9375 48.1525 36.9375 47.4925 36.9375 46.8125 C36.35484375 46.544375 35.7721875 46.27625 35.171875 46 C32.90963399 44.79769009 31.13173682 43.47424087 29.1875 41.8125 C28.57390625 41.296875 27.9603125 40.78125 27.328125 40.25 C25.9375 38.8125 25.9375 38.8125 25.9375 36.8125 C25.2775 36.8125 24.6175 36.8125 23.9375 36.8125 C23.9375 36.1525 23.9375 35.4925 23.9375 34.8125 C23.2775 34.8125 22.6175 34.8125 21.9375 34.8125 C21.9375 34.1525 21.9375 33.4925 21.9375 32.8125 C21.2775 32.8125 20.6175 32.8125 19.9375 32.8125 C19.9375 32.1525 19.9375 31.4925 19.9375 30.8125 C18.9475 30.4825 17.9575 30.1525 16.9375 29.8125 C16.9375 29.1525 16.9375 28.4925 16.9375 27.8125 C16.380625 27.565 15.82375 27.3175 15.25 27.0625 C12.51339087 25.58325182 10.26099131 23.87782561 7.9375 21.8125 C7.9375 21.1525 7.9375 20.4925 7.9375 19.8125 C7.35484375 19.544375 6.7721875 19.27625 6.171875 19 C3.90963399 17.79769009 2.13173682 16.47424087 0.1875 14.8125 C-0.42609375 14.296875 -1.0396875 13.78125 -1.671875 13.25 C-3.0625 11.8125 -3.0625 11.8125 -3.0625 9.8125 C-3.7225 9.8125 -4.3825 9.8125 -5.0625 9.8125 C-5.0625 9.1525 -5.0625 8.4925 -5.0625 7.8125 C-5.7225 7.8125 -6.3825 7.8125 -7.0625 7.8125 C-6.73003345 4.73718444 -6.43145244 3.19417494 -4.25 0.9375 C-2.0625 -0.1875 -2.0625 -0.1875 0 0 Z " fill="#4E4E4E" transform="translate(161.0625,150.1875)"/>
<path d="M0 0 C0.66 0.33 1.32 0.66 2 1 C-1.77844413 5.62859406 -5.6257421 9.5565619 -10.265625 13.32421875 C-12.0968652 15.09359273 -13.00626435 16.67283334 -14 19 C-13.34 19.33 -12.68 19.66 -12 20 C-12.33 20.66 -12.66 21.32 -13 22 C-12.34 22 -11.68 22 -11 22 C-11.33 20.35 -11.66 18.7 -12 17 C-9.875 14.875 -9.875 14.875 -7 13 C-3.6875 13.75 -3.6875 13.75 -1 15 C-1 15.66 -1 16.32 -1 17 C-2.57421875 18.55078125 -2.57421875 18.55078125 -4.6875 20.3125 C-7.19802294 22.43644684 -9.60823421 24.55501344 -11.875 26.9375 C-14 29 -14 29 -16 29 C-16.33 29.99 -16.66 30.98 -17 32 C-17.66 32 -18.32 32 -19 32 C-19.33 32.99 -19.66 33.98 -20 35 C-21.67608503 36.4990539 -23.41561832 37.92799326 -25.1875 39.3125 C-29.40943278 42.67685269 -33.28752499 46.08685066 -37 50 C-37.66 49.67 -38.32 49.34 -39 49 C-38.01 47.68 -37.02 46.36 -36 45 C-38.97 45.495 -38.97 45.495 -42 46 C-42 45.01 -42 44.02 -42 43 C-42.66 42.67 -43.32 42.34 -44 42 C-40.87608257 38.77531104 -37.63668034 35.70607022 -34.3125 32.6875 C-33.54550781 31.99011719 -32.77851562 31.29273438 -31.98828125 30.57421875 C-30 29 -30 29 -28 29 C-27.34 27.68 -26.68 26.36 -26 25 C-25.34 25 -24.68 25 -24 25 C-23.7525 24.38125 -23.505 23.7625 -23.25 23.125 C-21.79371361 20.64931313 -20.62187494 20.04874998 -18 19 C-18 18.34 -18 17.68 -18 17 C-16.56640625 15.5546875 -16.56640625 15.5546875 -14.5625 13.875 C-13.840625 13.26011719 -13.11875 12.64523438 -12.375 12.01171875 C-11.59125 11.34785156 -10.8075 10.68398437 -10 10 C-8.34908096 8.56834364 -6.70312845 7.13093753 -5.0625 5.6875 C-4.31097656 5.03136719 -3.55945313 4.37523437 -2.78515625 3.69921875 C-0.91375803 2.11045152 -0.91375803 2.11045152 0 0 Z " fill="#525252" transform="translate(138,149)"/>
<path d="M0 0 C2 1 4 2 6 3 C4.54682061 6.3907519 2.58699688 8.41300312 0 11 C-0.33 11.99 -0.66 12.98 -1 14 C-4 16 -4 16 -7 16 C-7 16.66 -7 17.32 -7 18 C-15.51493528 22.06036266 -22.78941592 24.17049729 -32.25 24.4375 C-32.94810791 24.47198242 -33.64621582 24.50646484 -34.36547852 24.54199219 C-38.18716745 24.57332128 -39.69301986 24.29259045 -42.5 21.6171875 C-44 19 -44 19 -43.75 16.6875 C-43.5025 16.130625 -43.255 15.57375 -43 15 C-42.34 15 -41.68 15 -41 15 C-41 14.34 -41 13.68 -41 13 C-37.125 13.875 -37.125 13.875 -36 15 C-33.81360547 15.07258946 -31.62499611 15.08373783 -29.4375 15.0625 C-28.23996094 15.05347656 -27.04242188 15.04445312 -25.80859375 15.03515625 C-24.41833984 15.01775391 -24.41833984 15.01775391 -23 15 C-23 14.34 -23 13.68 -23 13 C-22.28714844 12.68546875 -21.57429688 12.3709375 -20.83984375 12.046875 C-13.30129309 8.67837053 -6.34366215 5.38250122 0 0 Z " fill="#434343" transform="translate(243,179)"/>
<path d="M0 0 C-1.25541557 2.51083114 -2.50063488 2.87125446 -5 4 C-4.34 5.98 -3.68 7.96 -3 10 C-5.73282675 8.92343188 -8.37004879 7.81497561 -11 6.5 C-18.92810228 3.11457942 -29.62383152 1.50894618 -38 4 C-40.17803213 5.49801305 -41.36516689 6.87471696 -43 9 C-43.66 8.67 -44.32 8.34 -45 8 C-44.34 6.68 -43.68 5.36 -43 4 C-43.66 3.34 -44.32 2.68 -45 2 C-44.83107651 -1.20954624 -44.21262139 -2.73605621 -42.1875 -5.25 C-30.79038465 -14.36769228 -11.15857563 -5.61690099 0 0 Z " fill="#555555" transform="translate(238,103)"/>
<path d="M0 0 C0.7321875 0.06574219 1.464375 0.13148437 2.21875 0.19921875 C6.26248939 1.36349765 8.97126341 3.7925907 12.1875 6.4375 C13.13012695 7.19256836 13.13012695 7.19256836 14.09179688 7.96289062 C16.49944558 9.90188471 18.81230813 11.81230813 21 14 C20.82026876 16.78583421 20.20426753 17.80277618 18.1875 19.75 C16 21 16 21 12 21 C12 20.34 12 19.68 12 19 C11.4225 18.731875 10.845 18.46375 10.25 18.1875 C7.94449957 16.97070811 5.97943808 15.69666121 4 14 C4 13.34 4 12.68 4 12 C3.1028125 11.566875 3.1028125 11.566875 2.1875 11.125 C-1.60855942 9.17274087 -3.40084243 7.69475066 -5.1875 3.875 C-5.70376953 2.78832031 -5.70376953 2.78832031 -6.23046875 1.6796875 C-6.48441406 1.12539062 -6.73835938 0.57109375 -7 0 C-4.28877166 -1.35561417 -2.92020777 -0.67911809 0 0 Z " fill="#545454" transform="translate(123,118)"/>
<path d="M0 0 C0.66 0.33 1.32 0.66 2 1 C1.34 2.32 0.68 3.64 0 5 C0.94875 5.309375 1.8975 5.61875 2.875 5.9375 C6 7 6 7 8 8 C4.25 11 4.25 11 2 11 C2 11.66 2 12.32 2 13 C0.84161379 14.12431603 -0.31867233 15.24673843 -1.48828125 16.359375 C-4.44150514 19.56442419 -6.6724936 23.32877857 -9 27 C-11.28571429 17.85714286 -11.28571429 17.85714286 -10 14 C-11.98 14.99 -11.98 14.99 -14 16 C-13 14 -12 12 -11 10 C-10.34 10 -9.68 10 -9 10 C-8.74476562 9.40703125 -8.48953125 8.8140625 -8.2265625 8.203125 C-6.88183502 5.78775462 -5.50785633 4.48788294 -3.375 2.75 C-2.74335937 2.22921875 -2.11171875 1.7084375 -1.4609375 1.171875 C-0.73777344 0.59179688 -0.73777344 0.59179688 0 0 Z " fill="#595959" transform="translate(60,104)"/>
<path d="M0 0 C0.33 0.99 0.66 1.98 1 3 C0.67 3.66 0.34 4.32 0 5 C-0.99 5 -1.98 5 -3 5 C-3.309375 5.94875 -3.61875 6.8975 -3.9375 7.875 C-5 11 -5 11 -6 13 C-5.34 13 -4.68 13 -4 13 C-4.2700835 17.59141945 -6.22750323 19.66907777 -9.33203125 22.765625 C-11.2046416 24.15144437 -12.72532984 24.58552648 -15 25 C-15 24.34 -15 23.68 -15 23 C-16.98 23 -18.96 23 -21 23 C-21.33 23.99 -21.66 24.98 -22 26 C-22.33 26.33 -22.66 26.66 -23 27 C-23 28.32 -23 29.64 -23 31 C-23.66 31 -24.32 31 -25 31 C-26 28.5 -26 28.5 -26 25 C-22.83865489 20.78761028 -18.67053353 17.52029685 -14.625 14.1875 C-11.85425677 12.08914751 -11.85425677 12.08914751 -10 9 C-9.34 9 -8.68 9 -8 9 C-7.67 8.01 -7.34 7.02 -7 6 C-5.37109375 4.39453125 -5.37109375 4.39453125 -3.4375 2.8125 C-2.47650391 2.01779297 -2.47650391 2.01779297 -1.49609375 1.20703125 C-1.00238281 0.80871094 -0.50867188 0.41039062 0 0 Z " fill="#303030" transform="translate(150,140)"/>
<path d="M0 0 C2.21875 -0.26953125 2.21875 -0.26953125 5 0 C7.28125 1.86328125 7.28125 1.86328125 9.5 4.3125 C14.71522583 10.0386822 14.71522583 10.0386822 21.89453125 12.29296875 C22.85746094 12.25816406 23.82039063 12.22335938 24.8125 12.1875 C26.27623047 12.14689453 26.27623047 12.14689453 27.76953125 12.10546875 C28.50558594 12.07066406 29.24164063 12.03585938 30 12 C30 12.33 30 12.66 30 13 C24.47614346 14.38096413 19.17542085 15.08771042 14 12.5 C13.34 12.005 12.68 11.51 12 11 C12 11.66 12 12.32 12 13 C11.01 13.495 11.01 13.495 10 14 C10 15.32 10 16.64 10 18 C9.34 18 8.68 18 8 18 C8 17.34 8 16.68 8 16 C7.443125 15.79375 6.88625 15.5875 6.3125 15.375 C3.12455902 13.47946752 0.67138019 11.31394349 -1 8 C-1.12521311 5.09922966 -0.64363939 2.87162188 0 0 Z " fill="#585858" transform="translate(190,181)"/>
<path d="M0 0 C2 1 4 2 6 3 C4.54682061 6.3907519 2.58699688 8.41300312 0 11 C-0.33 11.99 -0.66 12.98 -1 14 C-7.11111111 17 -7.11111111 17 -10 17 C-10 16.01 -10 15.02 -10 14 C-10.66 14 -11.32 14 -12 14 C-11.74756728 10.35590712 -11.15280295 9.14994237 -8.49609375 6.54296875 C-7.48675781 5.76566406 -6.47742188 4.98835937 -5.4375 4.1875 C-4.42558594 3.39730469 -3.41367188 2.60710937 -2.37109375 1.79296875 C-1.58863281 1.20128906 -0.80617187 0.60960937 0 0 Z " fill="#282828" transform="translate(243,179)"/>
<path d="M0 0 C3.47775179 1.51553404 5.9557984 3.5773456 8.75 6.125 C9.94882813 7.21167969 9.94882813 7.21167969 11.171875 8.3203125 C11.77515625 8.87460938 12.3784375 9.42890625 13 10 C10 12 10 12 7.3125 11.625 C6.549375 11.41875 5.78625 11.2125 5 11 C4.7226499 14.18490007 4.7226499 14.18490007 7 17 C3.7173068 15.50923566 1.06922559 13.61379679 -1.75 11.375 C-2.54921875 10.74335937 -3.3484375 10.11171875 -4.171875 9.4609375 C-4.77515625 8.97882813 -5.3784375 8.49671875 -6 8 C-5 6 -5 6 -3 5 C-2.01 4.34 -1.02 3.68 0 3 C0 2.01 0 1.02 0 0 Z " fill="#606060" transform="translate(113,107)"/>
<path d="M0 0 C0.33 0.66 0.66 1.32 1 2 C1.66 2.33 2.32 2.66 3 3 C3 9.95983087 3 9.95983087 0.15234375 12.921875 C-0.94400391 13.82679687 -0.94400391 13.82679687 -2.0625 14.75 C-3.16271484 15.67039062 -3.16271484 15.67039062 -4.28515625 16.609375 C-4.85105469 17.06828125 -5.41695312 17.5271875 -6 18 C-8 15 -8 15 -8 13 C-8.66 12.34 -9.32 11.68 -10 11 C-8.85455923 7.56367769 -7.7288492 6.66528415 -5 4.375 C-4.278125 3.76398438 -3.55625 3.15296875 -2.8125 2.5234375 C-2.214375 2.02070312 -1.61625 1.51796875 -1 1 C-0.67 0.67 -0.34 0.34 0 0 Z " fill="#383838" transform="translate(186,107)"/>
<path d="M0 0 C0.66 0.33 1.32 0.66 2 1 C1.62875 1.53625 1.2575 2.0725 0.875 2.625 C-0.34866009 5.09584888 -0.34866009 5.09584888 1.25 7.8125 C2 11 2 11 0.8046875 12.94140625 C-0.7322253 14.71064308 -2.30538137 16.3819743 -4 18 C-6.18284504 15.34262343 -7.27633685 13.34430737 -8 10 C-8.44730469 10.47050781 -8.89460937 10.94101563 -9.35546875 11.42578125 C-12.68117905 14.85076649 -15.70750866 17.78871658 -20 20 C-18.95125002 17.37812506 -18.35068687 16.20628639 -15.875 14.75 C-15.25625 14.5025 -14.6375 14.255 -14 14 C-14 13.34 -14 12.68 -14 12 C-12.46729429 10.64864497 -10.87223227 9.36746113 -9.25 8.125 C-5.94152325 5.58076203 -2.89153346 3.01314001 0 0 Z " fill="#484848" transform="translate(194,98)"/>
<path d="M0 0 C0.99 0.66 1.98 1.32 3 2 C3.36076355 4.9359436 3.36076355 4.9359436 3.34057617 8.74462891 C3.34101425 9.43742447 3.34145233 10.13022003 3.34190369 10.8440094 C3.33981032 13.13847851 3.31645468 15.43222074 3.29296875 17.7265625 C3.28737471 19.31553752 3.28310371 20.90451771 3.28010559 22.49349976 C3.26864158 26.67922203 3.23916131 30.86463286 3.20599365 35.05023193 C3.17532611 39.31990343 3.16160737 43.58962516 3.14648438 47.859375 C3.11429284 56.23972639 3.06307803 64.61982447 3 73 C1.515 73.495 1.515 73.495 0 74 C-0.99 73.01 -1.98 72.02 -3 71 C-1.68 71.33 -0.36 71.66 1 72 C1 48.9 1 25.8 1 2 C-0.98 2.33 -2.96 2.66 -5 3 C-3 1 -3 1 0 0 Z " fill="#959595" transform="translate(206,111)"/>
<path d="M0 0 C5.53846154 0.49230769 5.53846154 0.49230769 7.875 3.0625 C8.431875 4.0215625 8.431875 4.0215625 9 5 C8.67 5.66 8.34 6.32 8 7 C8.165 7.639375 8.33 8.27875 8.5 8.9375 C9 11 9 11 8 14 C4.625 13.375 4.625 13.375 1 12 C-1.3105856 7.7639264 -1.09865494 4.61435073 0 0 Z " fill="#3D3D3D" transform="translate(58,182)"/>
<path d="M0 0 C6.4 2.4 6.4 2.4 9 5 C8.82026876 7.78583421 8.20426753 8.80277618 6.1875 10.75 C4 12 4 12 0 12 C0 11.34 0 10.68 0 10 C-1.32 9.34 -2.64 8.68 -4 8 C-3.34 7.01 -2.68 6.02 -2 5 C-2 3.68 -2 2.36 -2 1 C-1.34 0.67 -0.68 0.34 0 0 Z " fill="#575757" transform="translate(135,127)"/>
<path d="M0 0 C0.598125 0.226875 1.19625 0.45375 1.8125 0.6875 C1.1525 2.3375 0.4925 3.9875 -0.1875 5.6875 C0.8025 5.3575 1.7925 5.0275 2.8125 4.6875 C3.4725 5.3475 4.1325 6.0075 4.8125 6.6875 C4.4375 8.8125 4.4375 8.8125 3.8125 10.6875 C-0.15804597 10.6875 -1.35221244 9.3735619 -4.1875 6.6875 C-5.1875 4.625 -5.1875 4.625 -5.1875 2.6875 C-3.58493056 0.24147296 -2.95482043 -0.4221172 0 0 Z " fill="#1C1C1C" transform="translate(237.1875,104.3125)"/>
<path d="M0 0 C3.3125 0.75 3.3125 0.75 6 2 C6 2.66 6 3.32 6 4 C4.25 5.7265625 4.25 5.7265625 2 7.625 C1.2575 8.25664062 0.515 8.88828125 -0.25 9.5390625 C-0.8275 10.02117187 -1.405 10.50328125 -2 11 C-4.35953094 8.64046906 -4.49141413 7.22104383 -5 4 C-2.875 1.875 -2.875 1.875 0 0 Z " fill="#464646" transform="translate(131,162)"/>
<path d="M0 0 C0.66 0.33 1.32 0.66 2 1 C-5.53296338 8.64595783 -13.1224523 16.01106619 -21.4375 22.8125 C-24.03231972 24.73971393 -24.03231972 24.73971393 -25 27 C-25.66 26.67 -26.32 26.34 -27 26 C-26.29488281 25.29617187 -25.58976563 24.59234375 -24.86328125 23.8671875 C-22.95790813 21.96248458 -21.06030353 20.05046497 -19.16796875 18.1328125 C-14.09819349 13.00912138 -9.02553485 7.97102323 -3.5234375 3.3046875 C-2.30041699 2.25728019 -1.13860468 1.13860468 0 0 Z " fill="#E2E2E2" transform="translate(167,122)"/>
<path d="M0 0 C1.3921875 0.2784375 1.3921875 0.2784375 2.8125 0.5625 C3.534375 0.706875 4.25625 0.85125 5 1 C4.04882866 2.1725131 3.08882991 3.33787015 2.125 4.5 C1.32449219 5.47453125 1.32449219 5.47453125 0.5078125 6.46875 C-0.23855469 7.22671875 -0.23855469 7.22671875 -1 8 C-1.66 8 -2.32 8 -3 8 C-4.32 5.36 -5.64 2.72 -7 0 C-4.28877166 -1.35561417 -2.92020777 -0.67911809 0 0 Z " fill="#2E2E2E" transform="translate(123,118)"/>
<path d="M0 0 C3.77545388 1.09068668 6.47043472 1.9083091 9 5 C7.35 5 5.7 5 4 5 C3.71125 5.969375 3.4225 6.93875 3.125 7.9375 C2 11 2 11 0 12 C-0.99 11.01 -1.98 10.02 -3 9 C-2.01 9 -1.02 9 0 9 C-0.66 6.69 -1.32 4.38 -2 2 C-1.34 1.67 -0.68 1.34 0 1 C0 0.67 0 0.34 0 0 Z " fill="#717171" transform="translate(66,186)"/>
<path d="M0 0 C0.94875 0.04125 1.8975 0.0825 2.875 0.125 C2.400625 0.8675 1.92625 1.61 1.4375 2.375 C0.09630673 4.73550015 -0.637312 6.49148477 -1.125 9.125 C-2.115 9.125 -3.105 9.125 -4.125 9.125 C-4.785 8.465 -5.445 7.805 -6.125 7.125 C-5.66604657 2.53546569 -4.9886353 0.19954541 0 0 Z " fill="#1D1D1D" transform="translate(199.125,97.875)"/>
<path d="M0 0 C2.25 0.25 2.25 0.25 4 1 C4 2.32 4 3.64 4 5 C2 7 2 7 -1 8 C-1.99 6.68 -2.98 5.36 -4 4 C-2.25 1.9375 -2.25 1.9375 0 0 Z " fill="#1B1B1B" transform="translate(109,106)"/>
<path d="M0 0 C0.66 0.33 1.32 0.66 2 1 C-3.10489826 7.25350037 -8.5272273 13.59573688 -16 17 C-11.97439776 12.04541263 -7.71403194 7.84161182 -2.85546875 3.69921875 C-0.9126882 2.1233621 -0.9126882 2.1233621 0 0 Z " fill="#D8D8D8" transform="translate(138,149)"/>
<path d="M0 0 C0.99 0.33 1.98 0.66 3 1 C2.34 1.66 1.68 2.32 1 3 C0.62826984 5.6182767 0.62826984 5.6182767 0.5859375 8.6640625 C0.54726562 9.78554687 0.50859375 10.90703125 0.46875 12.0625 C0.4378125 13.238125 0.406875 14.41375 0.375 15.625 C0.33632812 16.80835938 0.29765625 17.99171875 0.2578125 19.2109375 C0.16331155 22.14046691 0.07775442 25.06998597 0 28 C-0.33 28 -0.66 28 -1 28 C-1.02886338 23.52084672 -1.04675187 19.04171709 -1.0625 14.5625 C-1.07087891 13.28310547 -1.07925781 12.00371094 -1.08789062 10.68554688 C-1.09111328 9.47060547 -1.09433594 8.25566406 -1.09765625 7.00390625 C-1.10289307 5.87799072 -1.10812988 4.7520752 -1.11352539 3.59204102 C-1 1 -1 1 0 0 Z " fill="#313131" transform="translate(201,114)"/>
<path d="M0 0 C0.99 0.33 1.98 0.66 3 1 C3 1.66 3 2.32 3 3 C-1.60803631 6.07202421 -6.5473464 5.96408002 -12 6 C-15.75 5.0625 -15.75 5.0625 -18 4 C-14.31599416 2.76895845 -11.08525024 3.09232748 -7.25 3.4375 C-6.07953125 3.53933594 -4.9090625 3.64117187 -3.703125 3.74609375 C-2.36507812 3.87177734 -2.36507812 3.87177734 -1 4 C-0.67 2.68 -0.34 1.36 0 0 Z " fill="#AAAAAA" transform="translate(96,198)"/>
<path d="M0 0 C0.33 2.31 0.66 4.62 1 7 C0.01 7.33 -0.98 7.66 -2 8 C-2.33 7.34 -2.66 6.68 -3 6 C-3.99 6.495 -3.99 6.495 -5 7 C-4.649375 6.38125 -4.29875 5.7625 -3.9375 5.125 C-3.628125 4.42375 -3.31875 3.7225 -3 3 C-3.33 2.34 -3.66 1.68 -4 1 C-2 0 -2 0 0 0 Z " fill="#1D1D1D" transform="translate(98,173)"/>
<path d="M0 0 C0.66 0.66 1.32 1.32 2 2 C1.34 3.98 0.68 5.96 0 8 C-1.32 7.34 -2.64 6.68 -4 6 C-4 5.01 -4 4.02 -4 3 C-2 1.3125 -2 1.3125 0 0 Z " fill="#1B1B1B" transform="translate(133,126)"/>
<path d="M0 0 C3.76583554 0.54745627 5.22721286 1.99131767 7.625 4.875 C8.21539062 5.57367188 8.80578125 6.27234375 9.4140625 6.9921875 C11 9 11 9 13 12 C10.06120516 10.64763423 7.70767089 9.10057341 5.25 7 C4.63640625 6.484375 4.0228125 5.96875 3.390625 5.4375 C2 4 2 4 2 2 C1.34 2 0.68 2 0 2 C0 1.34 0 0.68 0 0 Z " fill="#D3D3D3" transform="translate(156,158)"/>
<path d="M0 0 C0.66 0.33 1.32 0.66 2 1 C-6.261959 9.6309795 -6.261959 9.6309795 -11 12 C-9.95125002 9.37812506 -9.35068687 8.20628639 -6.875 6.75 C-6.25625 6.5025 -5.6375 6.255 -5 6 C-5 5.34 -5 4.68 -5 4 C-3.37373596 2.61767557 -1.7074998 1.28062485 0 0 Z " fill="#E2E2E2" transform="translate(185,106)"/>
<path d="M0 0 C3.465 1.485 3.465 1.485 7 3 C3.375 6 3.375 6 0 6 C-0.38218767 4.34385343 -0.71395102 2.67542976 -1 1 C-0.67 0.67 -0.34 0.34 0 0 Z " fill="#3A3A3A" transform="translate(169,166)"/>
<path d="M0 0 C1.32 0.33 2.64 0.66 4 1 C4 2.33333333 4 3.66666667 4 5 C4.66 5.33 5.32 5.66 6 6 C4.02 6.33 2.04 6.66 0 7 C0 4.69 0 2.38 0 0 Z " fill="#3F3F3F" transform="translate(92,176)"/>
<path d="M0 0 C0.598125 0.20625 1.19625 0.4125 1.8125 0.625 C0.4925 2.275 -0.8275 3.925 -2.1875 5.625 C-3.1775 5.295 -4.1675 4.965 -5.1875 4.625 C-5.1875 3.635 -5.1875 2.645 -5.1875 1.625 C-2.1875 -0.375 -2.1875 -0.375 0 0 Z " fill="#1A1A1A" transform="translate(101.1875,193.375)"/>
<path d="M0 0 C0 1.65 0 3.3 0 5 C-0.99 5.495 -0.99 5.495 -2 6 C-2 7.32 -2 8.64 -2 10 C-2.66 10 -3.32 10 -4 10 C-4.75 7.25 -4.75 7.25 -5 4 C-1.84210526 0 -1.84210526 0 0 0 Z " fill="#1A1A1A" transform="translate(129,161)"/>
<path d="M0 0 C1.32 0.33 2.64 0.66 4 1 C3.67 2.32 3.34 3.64 3 5 C1.35 5.33 -0.3 5.66 -2 6 C-2.33 5.34 -2.66 4.68 -3 4 C-2.34 4 -1.68 4 -1 4 C-0.67 2.68 -0.34 1.36 0 0 Z " fill="#5D5D5D" transform="translate(239,105)"/>
<path d="M0 0 C0.66 0.33 1.32 0.66 2 1 C1.42655063 3.86724686 1.1385485 4.8614515 -1 7 C-1.66 5.68 -2.32 4.36 -3 3 C-2.01 2.01 -1.02 1.02 0 0 Z " fill="#1E1E1E" transform="translate(49,117)"/>
<path d="M0 0 C0.66 1.32 1.32 2.64 2 4 C1.01 4.66 0.02 5.32 -1 6 C-1 5.34 -1 4.68 -1 4 C-2.32 4.33 -3.64 4.66 -5 5 C-3.35 3.35 -1.7 1.7 0 0 Z " fill="#1A1A1A" transform="translate(107,181)"/>
<path d="M0 0 C0.66 0 1.32 0 2 0 C2.33 1.65 2.66 3.3 3 5 C2.01 5.66 1.02 6.32 0 7 C-0.99 6.01 -1.98 5.02 -3 4 C-2.01 4 -1.02 4 0 4 C0 2.68 0 1.36 0 0 Z " fill="#636363" transform="translate(66,191)"/>
<path d="M0 0 C0.66 0.33 1.32 0.66 2 1 C2 2.65 2 4.3 2 6 C1.01 6.33 0.02 6.66 -1 7 C-1.99 6.01 -2.98 5.02 -4 4 C-2.68 4.33 -1.36 4.66 0 5 C0 3.35 0 1.7 0 0 Z " fill="#B7B7B7" transform="translate(207,178)"/>
<path d="M0 0 C2.92879371 0.62759865 5.36095629 1.58622659 8 3 C7.67 3.66 7.34 4.32 7 5 C4.11424181 4.60196439 3.17810487 4.20990931 1.25 1.9375 C0.8375 1.298125 0.425 0.65875 0 0 Z M2 5 C2.99 5.495 2.99 5.495 4 6 C3.01 6.495 3.01 6.495 2 7 C2 6.34 2 5.68 2 5 Z " fill="#909090" transform="translate(230,100)"/>
</svg>
